<?xml version="1.0" encoding="UTF-8"?><svg id="Layer_2" xmlns="http://www.w3.org/2000/svg" viewBox="0 0 1000 1000"><defs><style>.cls-1{fill:#fbb03b;}</style></defs><g id="Layer_1-2"><path class="cls-1" d="M518.79,11.95l137.9,294.26c2.94,6.27,8.81,10.67,15.65,11.72l310.02,47.44c16.7,2.56,23.52,22.95,11.72,35.06l-225.62,231.61c-4.6,4.72-6.69,11.35-5.63,17.86l53.08,325.92c2.79,17.13-15.36,29.93-30.52,21.54l-275.35-152.44c-6.25-3.46-13.83-3.46-20.08,0l-275.35,152.44c-15.16,8.39-33.31-4.41-30.52-21.54l53.08-325.92c1.06-6.51-1.03-13.14-5.63-17.86L5.92,400.43c-11.8-12.11-4.98-32.51,11.72-35.06l310.02-47.44c6.84-1.05,12.71-5.44,15.65-11.72L481.21,11.95c7.47-15.94,30.1-15.94,37.57,0Z"/></g></svg>